<?xml version="1.0" encoding="utf-8"?>
<!-- Generator: Adobe Illustrator 19.1.0, SVG Export Plug-In . SVG Version: 6.00 Build 0)  -->
<svg version="1.1" id="Layer_1" xmlns="http://www.w3.org/2000/svg" xmlns:xlink="http://www.w3.org/1999/xlink" x="0px" y="0px"
	 viewBox="0 0 1152 350" style="enable-background:new 0 0 1152 350;" xml:space="preserve">
<style type="text/css">
	.st0{fill:none;}
	.st1{font-family:'Helvetica';}
	.st2{font-size:8px;}
	.st3{fill:#C64D9B;}
	.st4{fill:#B5B5B5;}
	.st5{fill:#009DB7;}
	.st6{font-size:12px;}
	.st7{font-size:14px;}
	.st8{font-family:'Helvetica-Bold';}
</style>
<rect x="36" y="309.6" class="st0" width="835.2" height="14.4"/>
<text transform="matrix(1 0 0 1 36 315.3519)" class="st1 st2">Survey conducted by Pew Research Center on a random population ages 18 and up in July of 2013</text>
<rect x="1208.8" y="89.6" class="st3" width="14.4" height="14.4"/>
<g>
	<g>
		<g>
			<path class="st4" d="M157,157L125.7,40.1C136,37.4,146.3,36,157,36V157z"/>
		</g>
	</g>
	<g>
		<g>
			<path class="st3" d="M157,157L92.9,259.6C36.2,224.2,19,149.6,54.4,92.9c17-27.2,40.3-44.5,71.3-52.8L157,157z"/>
		</g>
	</g>
	<g>
		<g>
			<path class="st5" d="M157,157V36c66.8,0,121,54.2,121,121s-54.2,121-121,121c-24.1,0-43.7-5.6-64.1-18.4L157,157z"/>
		</g>
	</g>
</g>
<g>
	<g>
	</g>
	<g>
	</g>
	<g>
	</g>
</g>
<rect x="286.8" y="-19.6" class="st3" width="14.4" height="14.4"/>
<rect x="286.8" y="-48.4" class="st5" width="14.4" height="14.4"/>
<rect x="242.6" y="-26.8" class="st4" width="14.4" height="14.4"/>
<rect x="313.1" y="195.4" class="st3" width="14.4" height="14.4"/>
<rect x="313.1" y="224.2" class="st4" width="14.4" height="14.4"/>
<rect x="313.1" y="166.6" class="st5" width="14.4" height="14.4"/>
<text transform="matrix(1 0 0 1 334.4999 178.2285)" class="st1 st6">59% Impossible</text>
<text transform="matrix(1 0 0 1 334.4999 207.0285)" class="st1 st6">37% Possible</text>
<text transform="matrix(1 0 0 1 334.4999 236.0287)" class="st1 st6">4% Don’t Know</text>
<rect x="313" y="63" class="st0" width="217" height="37"/>
<text transform="matrix(1 0 0 1 313 73.0659)"><tspan x="0" y="0" class="st1 st7">Do you believe that it is completely </tspan><tspan x="0" y="18" class="st1 st7">possible to be anonymous online?</tspan></text>
<rect x="626" y="63" class="st0" width="478" height="215"/>
<text transform="matrix(1 0 0 1 626 73.0659)"><tspan x="0" y="0" class="st8 st7">Attempts to reducing an online footprint</tspan><tspan x="0" y="22" class="st3 st8 st7">59%</tspan><tspan x="27.7" y="22" class="st1 st7"> clear cookies or browser history</tspan><tspan x="0" y="44" class="st3 st8 st7">57%</tspan><tspan x="27.7" y="44" class="st1 st7"> refused to provide information about themselves irrelevent to transaction</tspan><tspan x="0" y="66" class="st3 st8 st7">34%</tspan><tspan x="27.7" y="66" class="st1 st7"> have disabled or  turned off cookies</tspan><tspan x="0" y="88" class="st3 st8 st7">29%</tspan><tspan x="27.7" y="88" class="st1 st7"> have deleted or edited what they posted</tspan><tspan x="0" y="110" class="st3 st8 st7">25%</tspan><tspan x="27.7" y="110" class="st1 st7"> used a temporary email or username</tspan><tspan x="0" y="132" class="st3 st8 st7">24%</tspan><tspan x="27.7" y="132" class="st1 st7"> gave misleading or inaccurate information about themselves</tspan><tspan x="0" y="154" class="st3 st8 st7">23%</tspan><tspan x="27.7" y="154" class="st1 st7"> have avoided sites asking for real names</tspan><tspan x="0" y="176" class="st3 st8 st7">12%</tspan><tspan x="27.7" y="176" class="st1 st7"> use public computers to browse anonymously</tspan><tspan x="0" y="198" class="st3 st8 st7">11%</tspan><tspan x="27.7" y="198" class="st1 st7"> have asked others to remove sonthing that was posted about them </tspan></text>
</svg>
