<?xml version="1.0" encoding="utf-8"?>
<!-- Generator: Adobe Illustrator 19.1.0, SVG Export Plug-In . SVG Version: 6.00 Build 0)  -->
<svg version="1.1" id="Layer_1" xmlns="http://www.w3.org/2000/svg" xmlns:xlink="http://www.w3.org/1999/xlink" x="0px" y="0px"
	 viewBox="0 0 1152 350" style="enable-background:new 0 0 1152 350;" xml:space="preserve">
<style type="text/css">
	.st0{fill:#B5B5B5;}
	.st1{fill:#C64D9B;}
	.st2{fill:#009DB7;}
	.st3{font-family:'Helvetica';}
	.st4{font-size:12px;}
	.st5{fill:none;}
	.st6{font-size:14px;}
	.st7{font-size:8px;}
</style>
<g>
	<g>
		<path class="st0" d="M111.7,202.3L97.3,128c4.9-1,9.4-1.4,14.4-1.4V202.3z"/>
		<path class="st1" d="M111.7,202.3l-33.2-68c6-2.9,12.2-5,18.7-6.3L111.7,202.3z"/>
		<path class="st2" d="M111.7,202.3v-75.7c41.8,0,75.7,33.9,75.7,75.7S153.5,278,111.7,278S36,244.1,36,202.3
			c0-30.1,15.5-54.8,42.5-68L111.7,202.3z"/>
	</g>
	<g>
		<path class="st0" d="M495.5,202.5l-14.4-74.1c4.9-1,9.4-1.4,14.4-1.4V202.5z"/>
		<path class="st1" d="M495.5,202.5l-52.4-54.3c10.8-10.4,23.3-16.9,38-19.8L495.5,202.5z"/>
		<path class="st2" d="M495.5,202.5V127c41.7,0,75.5,33.8,75.5,75.5S537.2,278,495.5,278S420,244.2,420,202.5
			c0-21.7,7.5-39.2,23.1-54.3L495.5,202.5z"/>
	</g>
	<g>
		<path class="st0" d="M879.5,202.5L860,129.6c6.4-1.7,12.9-2.6,19.5-2.6V202.5z"/>
		<path class="st1" d="M879.5,202.5l-44.4-61.1c8.1-5.9,15.2-9.3,24.8-11.8L879.5,202.5z"/>
		<path class="st2" d="M879.5,202.5V127c41.7,0,75.5,33.8,75.5,75.5S921.2,278,879.5,278S804,244.2,804,202.5
			c0-25,10.9-46.4,31.1-61.1L879.5,202.5z"/>
	</g>
	<rect x="223.2" y="195.4" class="st1" width="14.4" height="14.4"/>
	<rect x="223.2" y="224.2" class="st0" width="14.4" height="14.4"/>
	<rect x="223.2" y="166.6" class="st2" width="14.4" height="14.4"/>
	<rect x="607.1" y="195.4" class="st1" width="14.4" height="14.4"/>
	<rect x="607.1" y="224.2" class="st0" width="14.4" height="14.4"/>
	<rect x="607.1" y="166.6" class="st2" width="14.4" height="14.4"/>
	<rect x="989.9" y="195.4" class="st1" width="14.4" height="14.4"/>
	<rect x="989.9" y="224.2" class="st0" width="14.4" height="14.4"/>
	<rect x="989.9" y="166.6" class="st2" width="14.4" height="14.4"/>
	<text transform="matrix(1 0 0 1 244.6 178.2285)" class="st3 st4">93% Important</text>
	<text transform="matrix(1 0 0 1 244.6 207.0285)" class="st3 st4">4% Not Important</text>
	<text transform="matrix(1 0 0 1 244.6 236.0287)" class="st3 st4">3% Misc/Refuse</text>
	<text transform="matrix(1 0 0 1 628.4999 178.2285)" class="st3 st4">88% Important</text>
	<text transform="matrix(1 0 0 1 628.4999 207.0285)" class="st3 st4">9% Not Important</text>
	<text transform="matrix(1 0 0 1 628.4999 236.0287)" class="st3 st4">3% Misc/Refuse</text>
	<text transform="matrix(1 0 0 1 1011.3 178.2285)" class="st3 st4">90% Important</text>
	<text transform="matrix(1 0 0 1 1011.3 207.0285)" class="st3 st4">6% Not Important</text>
	<text transform="matrix(1 0 0 1 1011.3 236.0287)" class="st3 st4">4% Misc/Refuse</text>
	<rect x="36" y="61.8" class="st5" width="299.7" height="28.8"/>
	<text transform="matrix(1 0 0 1 36 71.8657)"><tspan x="0" y="0" class="st3 st6">How important is it being in control of who can </tspan><tspan x="0" y="18" class="st3 st6">get information about you?</tspan></text>
	<rect x="420" y="61.8" class="st5" width="299.7" height="28.8"/>
	<text transform="matrix(1 0 0 1 420 71.8657)"><tspan x="0" y="0" class="st3 st6">How important is it not having someone watch </tspan><tspan x="0" y="18" class="st3 st6">you or listen to you without your permission?</tspan></text>
	<rect x="804" y="61.8" class="st5" width="300" height="28.8"/>
	<text transform="matrix(1 0 0 1 804 71.8657)"><tspan x="0" y="0" class="st3 st6">How important is it to you that you control what </tspan><tspan x="0" y="18" class="st3 st6">information is collected about you?</tspan></text>
</g>
<rect x="36" y="309.6" class="st5" width="835.2" height="14.4"/>
<text transform="matrix(1 0 0 1 36 315.3519)" class="st3 st7">Survey conducted by Pew Research Center on a random population ages 18 and up between January and February of 2015</text>
</svg>
