<?xml version="1.0" encoding="utf-8"?>
<!-- Generator: Adobe Illustrator 19.1.0, SVG Export Plug-In . SVG Version: 6.00 Build 0)  -->
<svg version="1.1" id="Layer_1" xmlns="http://www.w3.org/2000/svg" xmlns:xlink="http://www.w3.org/1999/xlink" x="0px" y="0px"
	 viewBox="0 0 1152 350" style="enable-background:new 0 0 1152 350;" xml:space="preserve">
<style type="text/css">
	.st0{fill:none;}
	.st1{font-family:'Helvetica';}
	.st2{font-size:8px;}
	.st3{fill:#01272E;}
	.st4{fill:#014F5C;}
	.st5{fill:#027689;}
	.st6{fill:#5EADB5;}
	.st7{fill:#35B1C5;}
	.st8{fill:#67C4D4;}
	.st9{fill:none;stroke:#000000;stroke-miterlimit:10;}
	.st10{font-size:11.25px;}
	.st11{font-size:12px;}
	.st12{font-size:14px;}
	.st13{fill:#C64D9B;}
	.st14{font-family:'Helvetica-Bold';}
</style>
<rect x="36" y="309.6" class="st0" width="835.2" height="14.4"/>
<text transform="matrix(1 0 0 1 36 315.3519)" class="st1 st2">Survey conducted by Pew Research Center on a random population ages 18 and up in July of 2013; Data  breadch statistics from 2014-2015 sourced from Identity Theft Resource Center </text>
<g>
	<g>
		<g>
			<g>
				<rect x="67.6" y="75.4" class="st3" width="28.8" height="201.6"/>
				<rect x="107.6" y="161.8" class="st4" width="28.8" height="115.2"/>
				<rect x="147.6" y="171.4" class="st5" width="28.8" height="105.6"/>
				<rect x="187.6" y="219.4" class="st6" width="28.8" height="57.6"/>
				<rect x="227.6" y="219.4" class="st7" width="28.8" height="57.6"/>
				<rect x="267.6" y="238.6" class="st8" width="28.8" height="38.4"/>
			</g>
		</g>
	</g>
	<g>
		<line class="st9" x1="62" y1="277" x2="302" y2="277"/>
		<g>
			<g>
				<line class="st9" x1="62" y1="277" x2="62" y2="271"/>
			</g>
		</g>
	</g>
	<g>
		<g>
			<text transform="matrix(1 0 0 1 41.9902 281.2188)" class="st1 st10">0%</text>
			<text transform="matrix(1 0 0 1 41.9902 233.2188)" class="st1 st10">5%</text>
			<text transform="matrix(1 0 0 1 35.7334 185.2188)" class="st1 st10">10%</text>
			<text transform="matrix(1 0 0 1 34.2324 137.2188)" class="st1 st11">15%</text>
			<text transform="matrix(1 0 0 1 34.2324 89.2188)" class="st1 st11">20%</text>
			<text transform="matrix(1 0 0 1 34.2324 41.2188)" class="st1 st11">25%</text>
		</g>
		<line class="st9" x1="62" y1="277" x2="62" y2="37"/>
		<g>
			<g>
				<line class="st9" x1="62" y1="277" x2="68" y2="277"/>
			</g>
		</g>
	</g>
</g>
<rect x="392.8" y="165.6" class="st6" width="14.4" height="14.4"/>
<rect x="392.8" y="208.8" class="st7" width="14.4" height="14.4"/>
<rect x="392.8" y="122.4" class="st5" width="14.4" height="14.4"/>
<rect x="392.8" y="79.2" class="st4" width="14.4" height="14.4"/>
<rect x="392.8" y="36" class="st3" width="14.4" height="14.4"/>
<rect x="392.8" y="252" class="st8" width="14.4" height="14.4"/>
<rect x="414.4" y="39.2" class="st0" width="357.6" height="28.8"/>
<text transform="matrix(1 0 0 1 414.4001 47.8279)" class="st1 st11">21% of internet users have had an email or social networking </text>
<text transform="matrix(1 0 0 1 414.4001 65.8279)" class="st1 st11">account compromised or taken over without their permission.</text>
<rect x="414.4" y="82.4" class="st0" width="648" height="28.8"/>
<text transform="matrix(1 0 0 1 414.4001 91.0279)" class="st1 st11">12% have been stalked or harassed online.</text>
<rect x="414.4" y="125.6" class="st0" width="357.6" height="28.8"/>
<text transform="matrix(1 0 0 1 414.4001 134.2279)" class="st1 st11">11% had important personal information stolen such as their Social </text>
<text transform="matrix(1 0 0 1 414.4001 152.2279)" class="st1 st11">Security Number, credit card, or bank account information.</text>
<rect x="414.4" y="168.8" class="st0" width="357.6" height="28.8"/>
<text transform="matrix(1 0 0 1 414.4001 177.4279)" class="st1 st11">6% had their reputation damaged because of something that </text>
<text transform="matrix(1 0 0 1 414.4001 195.4279)" class="st1 st11">happened online.</text>
<rect x="414.4" y="212" class="st0" width="417.9" height="28.8"/>
<text transform="matrix(1 0 0 1 414.4001 220.6279)" class="st1 st11">6% been the victim of an online scam and lost money.</text>
<rect x="414.4" y="255.2" class="st0" width="357.6" height="28.8"/>
<text transform="matrix(1 0 0 1 414.4001 263.8279)" class="st1 st11">4% had something happen online that led them into physical </text>
<text transform="matrix(1 0 0 1 414.4001 281.8279)" class="st1 st11">danger.</text>
<rect x="864" y="36" class="st0" width="240" height="281"/>
<text transform="matrix(1 0 0 1 864 46.0659)" class="st1 st12">In 2014, </text>
<text transform="matrix(1 0 0 1 917.5 46.0659)" class="st13 st14 st12">79.7%</text>
<text transform="matrix(1 0 0 1 956.6 46.0659)" class="st1 st12"> of the records exposed </text>
<text transform="matrix(1 0 0 1 864 64.0659)" class="st1 st12">by data breaches in the United States </text>
<text transform="matrix(1 0 0 1 864 82.0659)" class="st1 st12">were from the </text>
<text transform="matrix(1 0 0 1 951.9 82.0659)" class="st13 st14 st12">business sector</text>
<text transform="matrix(1 0 0 1 1056.8 82.0659)" class="st1 st12">. </text>
<text transform="matrix(1 0 0 1 864 118.0659)" class="st1 st12">In 2015, </text>
<text transform="matrix(1 0 0 1 917.5 118.0659)" class="st13 st14 st12">66.7 %</text>
<text transform="matrix(1 0 0 1 960.4 118.0659)" class="st1 st12"> of the records </text>
<text transform="matrix(1 0 0 1 864 136.0659)" class="st1 st12">exposed by data breaches in the </text>
<text transform="matrix(1 0 0 1 864 154.0659)" class="st1 st12">United States were from the </text>
<text transform="matrix(1 0 0 1 1038.3 154.0659)" class="st13 st14 st12">medical </text>
<text transform="matrix(1 0 0 1 864 172.0659)" class="st13 st14 st12">and healthcare sector</text>
<text transform="matrix(1 0 0 1 1006.4 172.0659)" class="st1 st12">.</text>
<text transform="matrix(1 0 0 1 864 208.0659)" class="st1 st12">From the 2015 data breaches, </text>
<text transform="matrix(1 0 0 1 1052.2 208.0659)" class="st13 st14 st12">over </text>
<text transform="matrix(1 0 0 1 864 226.0659)" class="st13 st14 st12">169 million personal records</text>
<text transform="matrix(1 0 0 1 1050.7 226.0659)" class="st1 st12"> were </text>
<text transform="matrix(1 0 0 1 864 244.0659)" class="st1 st12">exposed according to the </text>
<text transform="matrix(1 0 0 1 1021.5 244.0659)" class="st13 st14 st12">781 </text>
<text transform="matrix(1 0 0 1 864 262.0659)" class="st13 st14 st12">publicized breaches</text>
<text transform="matrix(1 0 0 1 995.7 262.0659)" class="st1 st12">.</text>
<rect x="209.2" y="-76.7" class="st5" width="14.4" height="14.4"/>
<rect x="189.2" y="-76.7" class="st4" width="14.4" height="14.4"/>
<rect x="169.2" y="-76.7" class="st3" width="14.4" height="14.4"/>
<rect x="229.2" y="-76.7" class="st6" width="14.4" height="14.4"/>
<rect x="249.2" y="-76.7" class="st7" width="14.4" height="14.4"/>
<rect x="269.2" y="-76.7" class="st8" width="14.4" height="14.4"/>
</svg>
