<?xml version="1.0" encoding="utf-8"?>
<!-- Generator: Adobe Illustrator 19.1.0, SVG Export Plug-In . SVG Version: 6.00 Build 0)  -->
<svg version="1.1" id="Layer_1" xmlns="http://www.w3.org/2000/svg" xmlns:xlink="http://www.w3.org/1999/xlink" x="0px" y="0px"
	 viewBox="0 0 32 32" style="enable-background:new 0 0 32 32;" xml:space="preserve">
<style type="text/css">
	.st0{fill:#4F4F4F;}
	.st1{fill:#231F20;}
	.st2{fill:#FFFFFF;}
	.st3{fill:#C1C1C1;}
	.st4{fill:#595959;}
	.st5{fill:#FF8103;}
</style>
<g>
	<path class="st0" d="M23.5,29h-15c-1,0-1.8-0.8-1.8-1.8V3.9c0-1,0.8-1.8,1.8-1.8h15c1,0,1.8,0.8,1.8,1.8v23.3
		C25.3,28.2,24.5,29,23.5,29z"/>
	<circle class="st1" cx="7.6" cy="15.6" r="0.4"/>
	<circle class="st1" cx="7.6" cy="3.9" r="0.4"/>
	<circle class="st1" cx="7.6" cy="27.3" r="0.4"/>
	<circle class="st1" cx="24.4" cy="3.9" r="0.4"/>
	<circle class="st1" cx="24.4" cy="15.6" r="0.4"/>
	<circle class="st1" cx="24.4" cy="27.3" r="0.4"/>
</g>
<g>
	<path class="st1" d="M21.4,8l0.2-0.2l-1-1L20.4,7c-1.2-1-2.7-1.6-4.4-1.6c-3.8,0-7,3.1-7,7v13.4H23V12.4C23,10.7,22.4,9.2,21.4,8z"
		/>
	<circle class="st2" cx="16" cy="12.4" r="6.3"/>
	<circle class="st1" cx="16" cy="12.4" r="0.4"/>
	<path class="st3" d="M16,9c-1.9,0-3.4,1.5-3.4,3.4c0,1.9,1.5,3.4,3.4,3.4s3.4-1.5,3.4-3.4C19.4,10.5,17.9,9,16,9z M16,9.8
		c0.2,0,0.3,0.1,0.3,0.3c0,0.2-0.1,0.3-0.3,0.3s-0.3-0.1-0.3-0.3C15.7,9.9,15.8,9.8,16,9.8z M13.7,12.6c-0.2,0-0.3-0.1-0.3-0.3
		c0-0.2,0.1-0.3,0.3-0.3s0.3,0.1,0.3,0.3C14,12.5,13.9,12.6,13.7,12.6z M14.6,14.2c-0.1,0.1-0.3,0.1-0.4,0s-0.1-0.3,0-0.4
		s0.3-0.1,0.4,0C14.7,13.9,14.7,14.1,14.6,14.2z M14.6,11c-0.1,0.1-0.3,0.1-0.4,0c-0.1-0.1-0.1-0.3,0-0.4s0.3-0.1,0.4,0
		C14.7,10.7,14.7,10.9,14.6,11z M16,14.9c-0.2,0-0.3-0.1-0.3-0.3c0-0.2,0.1-0.3,0.3-0.3s0.3,0.1,0.3,0.3
		C16.3,14.8,16.2,14.9,16,14.9z M16,13.5c-0.6,0-1.1-0.5-1.1-1.1s0.5-1.1,1.1-1.1s1.1,0.5,1.1,1.1S16.6,13.5,16,13.5z M17.4,10.6
		c0.1-0.1,0.3-0.1,0.4,0s0.1,0.3,0,0.4s-0.3,0.1-0.4,0C17.3,10.9,17.3,10.7,17.4,10.6z M17.8,14.2c-0.1,0.1-0.3,0.1-0.4,0
		s-0.1-0.3,0-0.4s0.3-0.1,0.4,0S17.9,14.1,17.8,14.2z M18.3,12.6c-0.2,0-0.3-0.1-0.3-0.3c0-0.2,0.1-0.3,0.3-0.3s0.3,0.1,0.3,0.3
		C18.5,12.5,18.4,12.6,18.3,12.6z"/>
	<polygon class="st4" points="12.5,22.3 12.5,19.8 10,19.8 10,22.3 10,24.8 12.5,24.8 15,24.8 15,22.3 	"/>
	<rect x="19.5" y="22.3" class="st5" width="2.5" height="2.5"/>
	<path class="st3" d="M19.5,15.6c0,0-6.3,4.8-6.3,4.8c-0.4,0.4-0.4,1,0,1.3c0.4,0.4,0.9,0.4,1.3,0L19.5,15.6z"/>
	<circle class="st1" cx="13.8" cy="21" r="0.4"/>
</g>
</svg>
